<svg xmlns="http://www.w3.org/2000/svg" viewBox="0 0 800 480" preserveAspectRatio="xMidYMid slice" aria-hidden="true">
  <defs>
    <linearGradient id="sky" x1="0" y1="0" x2="0" y2="1">
      <stop offset="0%" stop-color="#1e2d3d"/>
      <stop offset="55%" stop-color="#101820"/>
      <stop offset="100%" stop-color="#070b10"/>
    </linearGradient>
    <radialGradient id="glow" cx="62%" cy="28%" r="42%">
      <stop offset="0%" stop-color="#c9a06a" stop-opacity="0.45"/>
      <stop offset="55%" stop-color="#6a8aaa" stop-opacity="0.18"/>
      <stop offset="100%" stop-color="#000" stop-opacity="0"/>
    </radialGradient>
    <linearGradient id="build" x1="0" y1="0" x2="0" y2="1">
      <stop offset="0%" stop-color="#243444"/>
      <stop offset="100%" stop-color="#0a1016"/>
    </linearGradient>
  </defs>
  <rect width="800" height="480" fill="url(#sky)"/>
  <rect width="800" height="480" fill="url(#glow)"/>
  <!-- distant skyline -->
  <g fill="url(#build)" opacity="0.92">
    <rect x="40" y="210" width="48" height="160"/>
    <rect x="98" y="180" width="36" height="190"/>
    <rect x="148" y="230" width="70" height="140"/>
    <rect x="230" y="165" width="42" height="205"/>
    <rect x="286" y="200" width="58" height="170"/>
    <rect x="360" y="150" width="34" height="220"/>
    <rect x="410" y="190" width="80" height="180"/>
    <rect x="505" y="140" width="46" height="230"/>
    <rect x="565" y="205" width="62" height="165"/>
    <rect x="640" y="170" width="40" height="200"/>
    <rect x="695" y="220" width="70" height="150"/>
  </g>
  <!-- window lights -->
  <g fill="#e8c98a" opacity="0.55">
    <rect x="52" y="230" width="4" height="5"/><rect x="64" y="248" width="4" height="5"/>
    <rect x="108" y="200" width="3" height="4"/><rect x="118" y="220" width="3" height="4"/>
    <rect x="250" y="190" width="4" height="5"/><rect x="262" y="210" width="3" height="4"/>
    <rect x="430" y="210" width="4" height="5"/><rect x="450" y="235" width="3" height="4"/>
    <rect x="520" y="165" width="4" height="5"/><rect x="532" y="190" width="3" height="4"/>
    <rect x="655" y="195" width="3" height="4"/><rect x="668" y="220" width="4" height="5"/>
  </g>
  <ellipse cx="520" cy="120" rx="90" ry="28" fill="#d4b07a" opacity="0.12"/>
</svg>
